<svg width="1400" height="1236.2" enable-background="new 0 0 1400 980" version="1.1" viewBox="0 0 1400 1236.2" xml:space="preserve" xmlns="http://www.w3.org/2000/svg" xmlns:xlink="http://www.w3.org/1999/xlink">

<path id="XMLID_2_" d="m28.5 0v26.6h-28.5v1h28.5v37.699h-28.5v1h28.5v37.602h-28.5v1h28.5v37.699h-28.5v1h28.5v37.699h-28.5v1h28.5v37.602h-28.5v1h28.5v37.699h-28.5v1h28.5v37.699h-28.5v1h28.5v37.701h-28.5v1h28.5v37.6h-28.5v1h28.5v37.699h-28.5v1h28.5v37.701h-28.5v1h28.5v37.699h-28.5v1h28.5v37.6h-28.5v1h28.5v37.701h-28.5v1h28.5v37.699h-28.5v1h28.5v34.301h-28.5v1h28.5v37.699h-28.5v1h28.5v37.701h-28.5v1h28.5v37.699h-28.5v1h28.5v37.6h-28.5v1h28.5v37.701h-28.5v1h28.5v37.699h-28.5v1h28.5v37.699h-28.5v1h28.5v37.602h-28.5v1h28.5v37.699h-28.5v1h28.5v37.699h-28.5v1h28.5v37.701h-28.5v1h28.5v37.6h-28.5v1h28.5v37.699h-28.5v1h28.5v37.701h-28.5v1h28.5v37.699h-28.5v1h28.5v13h1v-13h37.699v13h1v-13h37.701v13h1v-13h37.6v13h1v-13h37.699v13h1v-13h37.701v13h1v-13h37.6v13h1v-13h37.699v13h1v-13h37.701v13h1v-13h37.699v13h1v-13h37.6v13h1v-13h37.701v13h1v-13h37.699v13h1v-13h37.701v13h1v-13h37.6v13h1v-13h37.699v13h1v-13h37.701v13h1v-13h37.699v13h1v-13h37.6v13h1v-13h37.701v13h1v-13h37.699v13h1v-13h37.699v13h1v-13h37.602v13h1v-13h37.699v13h1v-13h37.699v13h1v-13h37.701v13h1v-13h37.6v13h1v-13h37.699v13h1v-13h37.701v13h1v-13h37.699v13h1v-13h37.6v13h1v-13h37.701v13h1v-13h37.699v13h1v-13h37.6v13h1v-13h37.701v13h1v-13h37.699v13h1v-13h16.9v-1h-16.9v-37.699h16.9v-1h-16.9v-37.701h16.9v-1h-16.9v-37.699h16.9v-1h-16.9v-37.6h16.9v-1h-16.9v-37.701h16.9v-1h-16.9v-37.699h16.9v-1h-16.9v-37.699h16.9v-1h-16.9v-37.602h16.9v-1h-16.9v-37.699h16.9v-1h-16.9v-37.699h16.9v-1h-16.9v-37.701h16.9v-1h-16.9v-37.6h16.9v-1h-16.9v-37.699h16.9v-1h-16.9v-37.701h16.9v-1h-16.9v-37.699h16.9v-1h-16.9v-34.301h16.9v-1h-16.9v-37.699h16.9v-1h-16.9v-37.701h16.9v-1h-16.9v-37.6h16.9v-1h-16.9v-37.699h16.9v-1h-16.9v-37.701h16.9v-1h-16.9v-37.699h16.9v-1h-16.9v-37.6h16.9v-1h-16.9v-37.701h16.9v-1h-16.9v-37.699h16.9v-1h-16.9v-37.699h16.9v-1h-16.9v-37.602h16.9v-1h-16.9v-37.699h16.9v-1h-16.9v-37.699h16.9v-1h-16.9v-37.602h16.9v-1h-16.9v-37.699h16.9v-1h-16.9v-26.6h-1v26.6h-37.699v-26.6h-1v26.6h-37.701v-26.6h-1v26.6h-37.6v-26.6h-1v26.6h-37.699v-26.6h-1v26.6h-37.701v-26.6h-1v26.6h-37.6v-26.6h-1v26.6h-37.699v-26.6h-1v26.6h-37.701v-26.6h-1v26.6h-37.699v-26.6h-1v26.6h-37.6v-26.6h-1v26.6h-37.701v-26.6h-1v26.6h-37.699v-26.6h-1v26.6h-37.699v-26.6h-1v26.6h-37.602v-26.6h-1v26.6h-37.699v-26.6h-1v26.6h-37.699v-26.6h-1v26.6h-37.701v-26.6h-1v26.6h-37.6v-26.6h-1v26.6h-37.699v-26.6h-1v26.6h-37.701v-26.6h-1v26.6h-37.699v-26.6h-1v26.6h-37.6v-26.6h-1v26.6h-37.701v-26.6h-1v26.6h-37.699v-26.6h-1v26.6h-37.701v-26.6h-1v26.6h-37.6v-26.6h-1v26.6h-37.699v-26.6h-1v26.6h-37.701v-26.6h-1v26.6h-37.699v-26.6h-1v26.6h-37.6v-26.6h-1v26.6h-37.701v-26.6h-1v26.6h-37.699v-26.6h-1v26.6h-37.6v-26.6h-1v26.6h-37.701v-26.6h-1v26.6h-37.699v-26.6zm1 27.6h37.699v37.699h-37.699zm38.699 0h37.701v37.699h-37.701zm38.701 0h37.6v37.699h-37.6zm38.6 0h37.699v37.699h-37.699zm38.699 0h37.701v37.699h-37.701zm38.701 0h37.6v37.699h-37.6zm38.6 0h37.699v37.699h-37.699zm38.699 0h37.701v37.699h-37.701zm38.701 0h37.699v37.699h-37.699zm38.699 0h37.6v37.699h-37.6zm38.6 0h37.701v37.699h-37.701zm38.701 0h37.699v37.699h-37.699zm38.699 0h37.701v37.699h-37.701zm38.701 0h37.6v37.699h-37.6zm38.6 0h37.699v37.699h-37.699zm38.699 0h37.701v37.699h-37.701zm38.701 0h37.699v37.699h-37.699zm38.699 0h37.6v37.699h-37.6zm38.6 0h37.701v37.699h-37.701zm38.701 0h37.699v37.699h-37.699zm38.699 0h37.699v37.699h-37.699zm38.699 0h37.602v37.699h-37.602zm38.602 0h37.699v37.699h-37.699zm38.699 0h37.699v37.699h-37.699zm38.699 0h37.701v37.699h-37.701zm38.701 0h37.6v37.699h-37.6zm38.6 0h37.699v37.699h-37.699zm38.699 0h37.701v37.699h-37.701zm38.701 0h37.699v37.699h-37.699zm38.699 0h37.6v37.699h-37.6zm38.6 0h37.701v37.699h-37.701zm38.701 0h37.699v37.699h-37.699zm38.699 0h37.6v37.699h-37.6zm38.6 0h37.701v37.699h-37.701zm38.701 0h37.699v37.699h-37.699zm-1314.9 38.699h37.699v37.602h-37.699zm38.699 0h37.701v37.602h-37.701zm38.701 0h37.6v37.602h-37.6zm38.6 0h37.699v37.602h-37.699zm38.699 0h37.701v37.602h-37.701zm38.701 0h37.6v37.602h-37.6zm38.6 0h37.699v37.602h-37.699zm38.699 0h37.701v37.602h-37.701zm38.701 0h37.699v37.602h-37.699zm38.699 0h37.6v37.602h-37.6zm38.6 0h37.701v37.602h-37.701zm38.701 0h37.699v37.602h-37.699zm38.699 0h37.701v37.602h-37.701zm38.701 0h37.6v37.602h-37.6zm38.6 0h37.699v37.602h-37.699zm38.699 0h37.701v37.602h-37.701zm38.701 0h37.699v37.602h-37.699zm38.699 0h37.6v37.602h-37.6zm38.6 0h37.701v37.602h-37.701zm38.701 0h37.699v37.602h-37.699zm38.699 0h37.699v37.602h-37.699zm38.699 0h37.602v37.602h-37.602zm38.602 0h37.699v37.602h-37.699zm38.699 0h37.699v37.602h-37.699zm38.699 0h37.701v37.602h-37.701zm38.701 0h37.6v37.602h-37.6zm38.6 0h37.699v37.602h-37.699zm38.699 0h37.701v37.602h-37.701zm38.701 0h37.699v37.602h-37.699zm38.699 0h37.6v37.602h-37.6zm38.6 0h37.701v37.602h-37.701zm38.701 0h37.699v37.602h-37.699zm38.699 0h37.6v37.602h-37.6zm38.6 0h37.701v37.602h-37.701zm38.701 0h37.699v37.602h-37.699zm-1314.9 38.602h37.699v37.699h-37.699zm38.699 0h37.701v37.699h-37.701zm38.701 0h37.6v37.699h-37.6zm38.6 0h37.699v37.699h-37.699zm38.699 0h37.701v37.699h-37.701zm38.701 0h37.6v37.699h-37.6zm38.6 0h37.699v37.699h-37.699zm38.699 0h37.701v37.699h-37.701zm38.701 0h37.699v37.699h-37.699zm38.699 0h37.6v37.699h-37.6zm38.6 0h37.701v37.699h-37.701zm38.701 0h37.699v37.699h-37.699zm38.699 0h37.701v37.699h-37.701zm38.701 0h37.6v37.699h-37.6zm38.6 0h37.699v37.699h-37.699zm38.699 0h37.701v37.699h-37.701zm38.701 0h37.699v37.699h-37.699zm38.699 0h37.6v37.699h-37.6zm38.6 0h37.701v37.699h-37.701zm38.701 0h37.699v37.699h-37.699zm38.699 0h37.699v37.699h-37.699zm38.699 0h37.602v37.699h-37.602zm38.602 0h37.699v37.699h-37.699zm38.699 0h37.699v37.699h-37.699zm38.699 0h37.701v37.699h-37.701zm38.701 0h37.6v37.699h-37.6zm38.6 0h37.699v37.699h-37.699zm38.699 0h37.701v37.699h-37.701zm38.701 0h37.699v37.699h-37.699zm38.699 0h37.6v37.699h-37.6zm38.6 0h37.701v37.699h-37.701zm38.701 0h37.699v37.699h-37.699zm38.699 0h37.6v37.699h-37.6zm38.6 0h37.701v37.699h-37.701zm38.701 0h37.699v37.699h-37.699zm-1314.9 38.699h37.699v37.699h-37.699zm38.699 0h37.701v37.699h-37.701zm38.701 0h37.6v37.699h-37.6zm38.6 0h37.699v37.699h-37.699zm38.699 0h37.701v37.699h-37.701zm38.701 0h37.6v37.699h-37.6zm38.6 0h37.699v37.699h-37.699zm38.699 0h37.701v37.699h-37.701zm38.701 0h37.699v37.699h-37.699zm38.699 0h37.6v37.699h-37.6zm38.6 0h37.701v37.699h-37.701zm38.701 0h37.699v37.699h-37.699zm38.699 0h37.701v37.699h-37.701zm38.701 0h37.6v37.699h-37.6zm38.6 0h37.699v37.699h-37.699zm38.699 0h37.701v37.699h-37.701zm38.701 0h37.699v37.699h-37.699zm38.699 0h37.6v37.699h-37.6zm38.6 0h37.701v37.699h-37.701zm38.701 0h37.699v37.699h-37.699zm38.699 0h37.699v37.699h-37.699zm38.699 0h37.602v37.699h-37.602zm38.602 0h37.699v37.699h-37.699zm38.699 0h37.699v37.699h-37.699zm38.699 0h37.701v37.699h-37.701zm38.701 0h37.6v37.699h-37.6zm38.6 0h37.699v37.699h-37.699zm38.699 0h37.701v37.699h-37.701zm38.701 0h37.699v37.699h-37.699zm38.699 0h37.6v37.699h-37.6zm38.6 0h37.701v37.699h-37.701zm38.701 0h37.699v37.699h-37.699zm38.699 0h37.6v37.699h-37.6zm38.6 0h37.701v37.699h-37.701zm38.701 0h37.699v37.699h-37.699zm-1314.9 38.699h37.699v37.602h-37.699zm38.699 0h37.701v37.602h-37.701zm38.701 0h37.6v37.602h-37.6zm38.6 0h37.699v37.602h-37.699zm38.699 0h37.701v37.602h-37.701zm38.701 0h37.6v37.602h-37.6zm38.6 0h37.699v37.602h-37.699zm38.699 0h37.701v37.602h-37.701zm38.701 0h37.699v37.602h-37.699zm38.699 0h37.6v37.602h-37.6zm38.6 0h37.701v37.602h-37.701zm38.701 0h37.699v37.602h-37.699zm38.699 0h37.701v37.602h-37.701zm38.701 0h37.6v37.602h-37.6zm38.6 0h37.699v37.602h-37.699zm38.699 0h37.701v37.602h-37.701zm38.701 0h37.699v37.602h-37.699zm38.699 0h37.6v37.602h-37.6zm38.6 0h37.701v37.602h-37.701zm38.701 0h37.699v37.602h-37.699zm38.699 0h37.699v37.602h-37.699zm38.699 0h37.602v37.602h-37.602zm38.602 0h37.699v37.602h-37.699zm38.699 0h37.699v37.602h-37.699zm38.699 0h37.701v37.602h-37.701zm38.701 0h37.6v37.602h-37.6zm38.6 0h37.699v37.602h-37.699zm38.699 0h37.701v37.602h-37.701zm38.701 0h37.699v37.602h-37.699zm38.699 0h37.6v37.602h-37.6zm38.6 0h37.701v37.602h-37.701zm38.701 0h37.699v37.602h-37.699zm38.699 0h37.6v37.602h-37.6zm38.6 0h37.701v37.602h-37.701zm38.701 0h37.699v37.602h-37.699zm-1314.9 38.602h37.699v37.699h-37.699zm38.699 0h37.701v37.699h-37.701zm38.701 0h37.6v37.699h-37.6zm38.6 0h37.699v37.699h-37.699zm38.699 0h37.701v37.699h-37.701zm38.701 0h37.6v37.699h-37.6zm38.6 0h37.699v37.699h-37.699zm38.699 0h37.701v37.699h-37.701zm38.701 0h37.699v37.699h-37.699zm38.699 0h37.6v37.699h-37.6zm38.6 0h37.701v37.699h-37.701zm38.701 0h37.699v37.699h-37.699zm38.699 0h37.701v37.699h-37.701zm38.701 0h37.6v37.699h-37.6zm38.6 0h37.699v37.699h-37.699zm38.699 0h37.701v37.699h-37.701zm38.701 0h37.699v37.699h-37.699zm38.699 0h37.6v37.699h-37.6zm38.6 0h37.701v37.699h-37.701zm38.701 0h37.699v37.699h-37.699zm38.699 0h37.699v37.699h-37.699zm38.699 0h37.602v37.699h-37.602zm38.602 0h37.699v37.699h-37.699zm38.699 0h37.699v37.699h-37.699zm38.699 0h37.701v37.699h-37.701zm38.701 0h37.6v37.699h-37.6zm38.6 0h37.699v37.699h-37.699zm38.699 0h37.701v37.699h-37.701zm38.701 0h37.699v37.699h-37.699zm38.699 0h37.6v37.699h-37.6zm38.6 0h37.701v37.699h-37.701zm38.701 0h37.699v37.699h-37.699zm38.699 0h37.6v37.699h-37.6zm38.6 0h37.701v37.699h-37.701zm38.701 0h37.699v37.699h-37.699zm-1314.9 38.699h37.699v37.699h-37.699zm38.699 0h37.701v37.699h-37.701zm38.701 0h37.6v37.699h-37.6zm38.6 0h37.699v37.699h-37.699zm38.699 0h37.701v37.699h-37.701zm38.701 0h37.6v37.699h-37.6zm38.6 0h37.699v37.699h-37.699zm38.699 0h37.701v37.699h-37.701zm38.701 0h37.699v37.699h-37.699zm38.699 0h37.6v37.699h-37.6zm38.6 0h37.701v37.699h-37.701zm38.701 0h37.699v37.699h-37.699zm38.699 0h37.701v37.699h-37.701zm38.701 0h37.6v37.699h-37.6zm38.6 0h37.699v37.699h-37.699zm38.699 0h37.701v37.699h-37.701zm38.701 0h37.699v37.699h-37.699zm38.699 0h37.6v37.699h-37.6zm38.6 0h37.701v37.699h-37.701zm38.701 0h37.699v37.699h-37.699zm38.699 0h37.699v37.699h-37.699zm38.699 0h37.602v37.699h-37.602zm38.602 0h37.699v37.699h-37.699zm38.699 0h37.699v37.699h-37.699zm38.699 0h37.701v37.699h-37.701zm38.701 0h37.6v37.699h-37.6zm38.6 0h37.699v37.699h-37.699zm38.699 0h37.701v37.699h-37.701zm38.701 0h37.699v37.699h-37.699zm38.699 0h37.6v37.699h-37.6zm38.6 0h37.701v37.699h-37.701zm38.701 0h37.699v37.699h-37.699zm38.699 0h37.6v37.699h-37.6zm38.6 0h37.701v37.699h-37.701zm38.701 0h37.699v37.699h-37.699zm-1314.9 38.699h37.699v37.701h-37.699zm38.699 0h37.701v37.701h-37.701zm38.701 0h37.6v37.701h-37.6zm38.6 0h37.699v37.701h-37.699zm38.699 0h37.701v37.701h-37.701zm38.701 0h37.6v37.701h-37.6zm38.6 0h37.699v37.701h-37.699zm38.699 0h37.701v37.701h-37.701zm38.701 0h37.699v37.701h-37.699zm38.699 0h37.6v37.701h-37.6zm38.6 0h37.701v37.701h-37.701zm38.701 0h37.699v37.701h-37.699zm38.699 0h37.701v37.701h-37.701zm38.701 0h37.6v37.701h-37.6zm38.6 0h37.699v37.701h-37.699zm38.699 0h37.701v37.701h-37.701zm38.701 0h37.699v37.701h-37.699zm38.699 0h37.6v37.701h-37.6zm38.6 0h37.701v37.701h-37.701zm38.701 0h37.699v37.701h-37.699zm38.699 0h37.699v37.701h-37.699zm38.699 0h37.602v37.701h-37.602zm38.602 0h37.699v37.701h-37.699zm38.699 0h37.699v37.701h-37.699zm38.699 0h37.701v37.701h-37.701zm38.701 0h37.6v37.701h-37.6zm38.6 0h37.699v37.701h-37.699zm38.699 0h37.701v37.701h-37.701zm38.701 0h37.699v37.701h-37.699zm38.699 0h37.6v37.701h-37.6zm38.6 0h37.701v37.701h-37.701zm38.701 0h37.699v37.701h-37.699zm38.699 0h37.6v37.701h-37.6zm38.6 0h37.701v37.701h-37.701zm38.701 0h37.699v37.701h-37.699zm-1314.9 38.701h37.699v37.6h-37.699zm38.699 0h37.701v37.6h-37.701zm38.701 0h37.6v37.6h-37.6zm38.6 0h37.699v37.6h-37.699zm38.699 0h37.701v37.6h-37.701zm38.701 0h37.6v37.6h-37.6zm38.6 0h37.699v37.6h-37.699zm38.699 0h37.701v37.6h-37.701zm38.701 0h37.699v37.6h-37.699zm38.699 0h37.6v37.6h-37.6zm38.6 0h37.701v37.6h-37.701zm38.701 0h37.699v37.6h-37.699zm38.699 0h37.701v37.6h-37.701zm38.701 0h37.6v37.6h-37.6zm38.6 0h37.699v37.6h-37.699zm38.699 0h37.701v37.6h-37.701zm38.701 0h37.699v37.6h-37.699zm38.699 0h37.6v37.6h-37.6zm38.6 0h37.701v37.6h-37.701zm38.701 0h37.699v37.6h-37.699zm38.699 0h37.699v37.6h-37.699zm38.699 0h37.602v37.6h-37.602zm38.602 0h37.699v37.6h-37.699zm38.699 0h37.699v37.6h-37.699zm38.699 0h37.701v37.6h-37.701zm38.701 0h37.6v37.6h-37.6zm38.6 0h37.699v37.6h-37.699zm38.699 0h37.701v37.6h-37.701zm38.701 0h37.699v37.6h-37.699zm38.699 0h37.6v37.6h-37.6zm38.6 0h37.701v37.6h-37.701zm38.701 0h37.699v37.6h-37.699zm38.699 0h37.6v37.6h-37.6zm38.6 0h37.701v37.6h-37.701zm38.701 0h37.699v37.6h-37.699zm-1314.9 38.6h37.699v37.699h-37.699zm38.699 0h37.701v37.699h-37.701zm38.701 0h37.6v37.699h-37.6zm38.6 0h37.699v37.699h-37.699zm38.699 0h37.701v37.699h-37.701zm38.701 0h37.6v37.699h-37.6zm38.6 0h37.699v37.699h-37.699zm38.699 0h37.701v37.699h-37.701zm38.701 0h37.699v37.699h-37.699zm38.699 0h37.6v37.699h-37.6zm38.6 0h37.701v37.699h-37.701zm38.701 0h37.699v37.699h-37.699zm38.699 0h37.701v37.699h-37.701zm38.701 0h37.6v37.699h-37.6zm38.6 0h37.699v37.699h-37.699zm38.699 0h37.701v37.699h-37.701zm38.701 0h37.699v37.699h-37.699zm38.699 0h37.6v37.699h-37.6zm38.6 0h37.701v37.699h-37.701zm38.701 0h37.699v37.699h-37.699zm38.699 0h37.699v37.699h-37.699zm38.699 0h37.602v37.699h-37.602zm38.602 0h37.699v37.699h-37.699zm38.699 0h37.699v37.699h-37.699zm38.699 0h37.701v37.699h-37.701zm38.701 0h37.6v37.699h-37.6zm38.6 0h37.699v37.699h-37.699zm38.699 0h37.701v37.699h-37.701zm38.701 0h37.699v37.699h-37.699zm38.699 0h37.6v37.699h-37.6zm38.6 0h37.701v37.699h-37.701zm38.701 0h37.699v37.699h-37.699zm38.699 0h37.6v37.699h-37.6zm38.6 0h37.701v37.699h-37.701zm38.701 0h37.699v37.699h-37.699zm-1314.9 38.699h37.699v37.701h-37.699zm38.699 0h37.701v37.701h-37.701zm38.701 0h37.6v37.701h-37.6zm38.6 0h37.699v37.701h-37.699zm38.699 0h37.701v37.701h-37.701zm38.701 0h37.6v37.701h-37.6zm38.6 0h37.699v37.701h-37.699zm38.699 0h37.701v37.701h-37.701zm38.701 0h37.699v37.701h-37.699zm38.699 0h37.6v37.701h-37.6zm38.6 0h37.701v37.701h-37.701zm38.701 0h37.699v37.701h-37.699zm38.699 0h37.701v37.701h-37.701zm38.701 0h37.6v37.701h-37.6zm38.6 0h37.699v37.701h-37.699zm38.699 0h37.701v37.701h-37.701zm38.701 0h37.699v37.701h-37.699zm38.699 0h37.6v37.701h-37.6zm38.6 0h37.701v37.701h-37.701zm38.701 0h37.699v37.701h-37.699zm38.699 0h37.699v37.701h-37.699zm38.699 0h37.602v37.701h-37.602zm38.602 0h37.699v37.701h-37.699zm38.699 0h37.699v37.701h-37.699zm38.699 0h37.701v37.701h-37.701zm38.701 0h37.6v37.701h-37.6zm38.6 0h37.699v37.701h-37.699zm38.699 0h37.701v37.701h-37.701zm38.701 0h37.699v37.701h-37.699zm38.699 0h37.6v37.701h-37.6zm38.6 0h37.701v37.701h-37.701zm38.701 0h37.699v37.701h-37.699zm38.699 0h37.6v37.701h-37.6zm38.6 0h37.701v37.701h-37.701zm38.701 0h37.699v37.701h-37.699zm-1314.9 38.701h37.699v37.699h-37.699zm38.699 0h37.701v37.699h-37.701zm38.701 0h37.6v37.699h-37.6zm38.6 0h37.699v37.699h-37.699zm38.699 0h37.701v37.699h-37.701zm38.701 0h37.6v37.699h-37.6zm38.6 0h37.699v37.699h-37.699zm38.699 0h37.701v37.699h-37.701zm38.701 0h37.699v37.699h-37.699zm38.699 0h37.6v37.699h-37.6zm38.6 0h37.701v37.699h-37.701zm38.701 0h37.699v37.699h-37.699zm38.699 0h37.701v37.699h-37.701zm38.701 0h37.6v37.699h-37.6zm38.6 0h37.699v37.699h-37.699zm38.699 0h37.701v37.699h-37.701zm38.701 0h37.699v37.699h-37.699zm38.699 0h37.6v37.699h-37.6zm38.6 0h37.701v37.699h-37.701zm38.701 0h37.699v37.699h-37.699zm38.699 0h37.699v37.699h-37.699zm38.699 0h37.602v37.699h-37.602zm38.602 0h37.699v37.699h-37.699zm38.699 0h37.699v37.699h-37.699zm38.699 0h37.701v37.699h-37.701zm38.701 0h37.6v37.699h-37.6zm38.6 0h37.699v37.699h-37.699zm38.699 0h37.701v37.699h-37.701zm38.701 0h37.699v37.699h-37.699zm38.699 0h37.6v37.699h-37.6zm38.6 0h37.701v37.699h-37.701zm38.701 0h37.699v37.699h-37.699zm38.699 0h37.6v37.699h-37.6zm38.6 0h37.701v37.699h-37.701zm38.701 0h37.699v37.699h-37.699zm-1314.9 38.699h37.699v37.6h-37.699zm38.699 0h37.701v37.6h-37.701zm38.701 0h37.6v37.6h-37.6zm38.6 0h37.699v37.6h-37.699zm38.699 0h37.701v37.6h-37.701zm38.701 0h37.6v37.6h-37.6zm38.6 0h37.699v37.6h-37.699zm38.699 0h37.701v37.6h-37.701zm38.701 0h37.699v37.6h-37.699zm38.699 0h37.6v37.6h-37.6zm38.6 0h37.701v37.6h-37.701zm38.701 0h37.699v37.6h-37.699zm38.699 0h37.701v37.6h-37.701zm38.701 0h37.6v37.6h-37.6zm38.6 0h37.699v37.6h-37.699zm38.699 0h37.701v37.6h-37.701zm38.701 0h37.699v37.6h-37.699zm38.699 0h37.6v37.6h-37.6zm38.6 0h37.701v37.6h-37.701zm38.701 0h37.699v37.6h-37.699zm38.699 0h37.699v37.6h-37.699zm38.699 0h37.602v37.6h-37.602zm38.602 0h37.699v37.6h-37.699zm38.699 0h37.699v37.6h-37.699zm38.699 0h37.701v37.6h-37.701zm38.701 0h37.6v37.6h-37.6zm38.6 0h37.699v37.6h-37.699zm38.699 0h37.701v37.6h-37.701zm38.701 0h37.699v37.6h-37.699zm38.699 0h37.6v37.6h-37.6zm38.6 0h37.701v37.6h-37.701zm38.701 0h37.699v37.6h-37.699zm38.699 0h37.6v37.6h-37.6zm38.6 0h37.701v37.6h-37.701zm38.701 0h37.699v37.6h-37.699zm-1314.9 38.6h37.699v37.701h-37.699zm38.699 0h37.701v37.701h-37.701zm38.701 0h37.6v37.701h-37.6zm38.6 0h37.699v37.701h-37.699zm38.699 0h37.701v37.701h-37.701zm38.701 0h37.6v37.701h-37.6zm38.6 0h37.699v37.701h-37.699zm38.699 0h37.701v37.701h-37.701zm38.701 0h37.699v37.701h-37.699zm38.699 0h37.6v37.701h-37.6zm38.6 0h37.701v37.701h-37.701zm38.701 0h37.699v37.701h-37.699zm38.699 0h37.701v37.701h-37.701zm38.701 0h37.6v37.701h-37.6zm38.6 0h37.699v37.701h-37.699zm38.699 0h37.701v37.701h-37.701zm38.701 0h37.699v37.701h-37.699zm38.699 0h37.6v37.701h-37.6zm38.6 0h37.701v37.701h-37.701zm38.701 0h37.699v37.701h-37.699zm38.699 0h37.699v37.701h-37.699zm38.699 0h37.602v37.701h-37.602zm38.602 0h37.699v37.701h-37.699zm38.699 0h37.699v37.701h-37.699zm38.699 0h37.701v37.701h-37.701zm38.701 0h37.6v37.701h-37.6zm38.6 0h37.699v37.701h-37.699zm38.699 0h37.701v37.701h-37.701zm38.701 0h37.699v37.701h-37.699zm38.699 0h37.6v37.701h-37.6zm38.6 0h37.701v37.701h-37.701zm38.701 0h37.699v37.701h-37.699zm38.699 0h37.6v37.701h-37.6zm38.6 0h37.701v37.701h-37.701zm38.701 0h37.699v37.701h-37.699zm-1314.9 38.701h37.699v37.699h-37.699zm38.699 0h37.701v37.699h-37.701zm38.701 0h37.6v37.699h-37.6zm38.6 0h37.699v37.699h-37.699zm38.699 0h37.701v37.699h-37.701zm38.701 0h37.6v37.699h-37.6zm38.6 0h37.699v37.699h-37.699zm38.699 0h37.701v37.699h-37.701zm38.701 0h37.699v37.699h-37.699zm38.699 0h37.6v37.699h-37.6zm38.6 0h37.701v37.699h-37.701zm38.701 0h37.699v37.699h-37.699zm38.699 0h37.701v37.699h-37.701zm38.701 0h37.6v37.699h-37.6zm38.6 0h37.699v37.699h-37.699zm38.699 0h37.701v37.699h-37.701zm38.701 0h37.699v37.699h-37.699zm38.699 0h37.6v37.699h-37.6zm38.6 0h37.701v37.699h-37.701zm38.701 0h37.699v37.699h-37.699zm38.699 0h37.699v37.699h-37.699zm38.699 0h37.602v37.699h-37.602zm38.602 0h37.699v37.699h-37.699zm38.699 0h37.699v37.699h-37.699zm38.699 0h37.701v37.699h-37.701zm38.701 0h37.6v37.699h-37.6zm38.6 0h37.699v37.699h-37.699zm38.699 0h37.701v37.699h-37.701zm38.701 0h37.699v37.699h-37.699zm38.699 0h37.6v37.699h-37.6zm38.6 0h37.701v37.699h-37.701zm38.701 0h37.699v37.699h-37.699zm38.699 0h37.6v37.699h-37.6zm38.6 0h37.701v37.699h-37.701zm38.701 0h37.699v37.699h-37.699zm-1314.9 38.699h37.699v34.301h-37.699v-26.5zm38.699 0h37.701v34.301h-37.701v-26.5zm38.701 0h37.6v34.301h-37.6v-26.5zm38.6 0h37.699v34.301h-37.699v-26.5zm38.699 0h37.701v34.301h-37.701v-26.5zm38.701 0h37.6v34.301h-37.6v-26.5zm38.6 0h37.699v34.301h-37.699v-26.5zm38.699 0h37.701v34.301h-37.701v-26.5zm38.701 0h37.699v34.301h-37.699v-26.5zm38.699 0h37.6v34.301h-37.6v-26.5zm38.6 0h37.701v34.301h-37.701v-26.5zm38.701 0h37.699v34.301h-37.699v-26.5zm38.699 0h37.701v34.301h-37.701v-26.5zm38.701 0h37.6v34.301h-37.6v-26.5zm38.6 0h37.699v34.301h-37.699v-26.5zm38.699 0h37.701v34.301h-37.701v-26.5zm38.701 0h37.699v34.301h-37.699v-26.5zm38.699 0h37.6v34.301h-37.6v-26.5zm38.6 0h37.701v34.301h-37.701v-26.5zm38.701 0h37.699v34.301h-37.699v-26.5zm38.699 0h37.699v34.301h-37.699v-26.5zm38.699 0h37.602v34.301h-37.602v-26.5zm38.602 0h37.699v34.301h-37.699v-26.5zm38.699 0h37.699v34.301h-37.699v-26.5zm38.699 0h37.701v34.301h-37.701v-26.5zm38.701 0h37.6v34.301h-37.6v-26.5zm38.6 0h37.699v34.301h-37.699v-26.5zm38.699 0h37.701v34.301h-37.701v-26.5zm38.701 0h37.699v34.301h-37.699v-26.5zm38.699 0h37.6v34.301h-37.6v-26.5zm38.6 0h37.701v34.301h-37.701v-26.5zm38.701 0h37.699v34.301h-37.699v-26.5zm38.699 0h37.6v34.301h-37.6v-26.5zm38.6 0h37.701v34.301h-37.701v-26.5zm38.701 0h37.699v34.301h-37.699v-26.5zm-1314.9 35.301h37.699v37.699h-37.699zm38.699 0h37.701v37.699h-37.701zm38.701 0h37.6v37.699h-37.6zm38.6 0h37.699v37.699h-37.699zm38.699 0h37.701v37.699h-37.701zm38.701 0h37.6v37.699h-37.6zm38.6 0h37.699v37.699h-37.699zm38.699 0h37.701v37.699h-37.701zm38.701 0h37.699v37.699h-37.699zm38.699 0h37.6v37.699h-37.6zm38.6 0h37.701v37.699h-37.701zm38.701 0h37.699v37.699h-37.699zm38.699 0h37.701v37.699h-37.701zm38.701 0h37.6v37.699h-37.6zm38.6 0h37.699v37.699h-37.699zm38.699 0h37.701v37.699h-37.701zm38.701 0h37.699v37.699h-37.699zm38.699 0h37.6v37.699h-37.6zm38.6 0h37.701v37.699h-37.701zm38.701 0h37.699v37.699h-37.699zm38.699 0h37.699v37.699h-37.699zm38.699 0h37.602v37.699h-37.602zm38.602 0h37.699v37.699h-37.699zm38.699 0h37.699v37.699h-37.699zm38.699 0h37.701v37.699h-37.701zm38.701 0h37.6v37.699h-37.6zm38.6 0h37.699v37.699h-37.699zm38.699 0h37.701v37.699h-37.701zm38.701 0h37.699v37.699h-37.699zm38.699 0h37.6v37.699h-37.6zm38.6 0h37.701v37.699h-37.701zm38.701 0h37.699v37.699h-37.699zm38.699 0h37.6v37.699h-37.6zm38.6 0h37.701v37.699h-37.701zm38.701 0h37.699v37.699h-37.699zm-1314.9 38.699h37.699v37.701h-37.699zm38.699 0h37.701v37.701h-37.701zm38.701 0h37.6v37.701h-37.6zm38.6 0h37.699v37.701h-37.699zm38.699 0h37.701v37.701h-37.701zm38.701 0h37.6v37.701h-37.6zm38.6 0h37.699v37.701h-37.699zm38.699 0h37.701v37.701h-37.701zm38.701 0h37.699v37.701h-37.699zm38.699 0h37.6v37.701h-37.6zm38.6 0h37.701v37.701h-37.701zm38.701 0h37.699v37.701h-37.699zm38.699 0h37.701v37.701h-37.701zm38.701 0h37.6v37.701h-37.6zm38.6 0h37.699v37.701h-37.699zm38.699 0h37.701v37.701h-37.701zm38.701 0h37.699v37.701h-37.699zm38.699 0h37.6v37.701h-37.6zm38.6 0h37.701v37.701h-37.701zm38.701 0h37.699v37.701h-37.699zm38.699 0h37.699v37.701h-37.699zm38.699 0h37.602v37.701h-37.602zm38.602 0h37.699v37.701h-37.699zm38.699 0h37.699v37.701h-37.699zm38.699 0h37.701v37.701h-37.701zm38.701 0h37.6v37.701h-37.6zm38.6 0h37.699v37.701h-37.699zm38.699 0h37.701v37.701h-37.701zm38.701 0h37.699v37.701h-37.699zm38.699 0h37.6v37.701h-37.6zm38.6 0h37.701v37.701h-37.701zm38.701 0h37.699v37.701h-37.699zm38.699 0h37.6v37.701h-37.6zm38.6 0h37.701v37.701h-37.701zm38.701 0h37.699v37.701h-37.699zm-1314.9 38.701h37.699v37.699h-37.699zm38.699 0h37.701v37.699h-37.701zm38.701 0h37.6v37.699h-37.6zm38.6 0h37.699v37.699h-37.699zm38.699 0h37.701v37.699h-37.701zm38.701 0h37.6v37.699h-37.6zm38.6 0h37.699v37.699h-37.699zm38.699 0h37.701v37.699h-37.701zm38.701 0h37.699v37.699h-37.699zm38.699 0h37.6v37.699h-37.6zm38.6 0h37.701v37.699h-37.701zm38.701 0h37.699v37.699h-37.699zm38.699 0h37.701v37.699h-37.701zm38.701 0h37.6v37.699h-37.6zm38.6 0h37.699v37.699h-37.699zm38.699 0h37.701v37.699h-37.701zm38.701 0h37.699v37.699h-37.699zm38.699 0h37.6v37.699h-37.6zm38.6 0h37.701v37.699h-37.701zm38.701 0h37.699v37.699h-37.699zm38.699 0h37.699v37.699h-37.699zm38.699 0h37.602v37.699h-37.602zm38.602 0h37.699v37.699h-37.699zm38.699 0h37.699v37.699h-37.699zm38.699 0h37.701v37.699h-37.701zm38.701 0h37.6v37.699h-37.6zm38.6 0h37.699v37.699h-37.699zm38.699 0h37.701v37.699h-37.701zm38.701 0h37.699v37.699h-37.699zm38.699 0h37.6v37.699h-37.6zm38.6 0h37.701v37.699h-37.701zm38.701 0h37.699v37.699h-37.699zm38.699 0h37.6v37.699h-37.6zm38.6 0h37.701v37.699h-37.701zm38.701 0h37.699v37.699h-37.699zm-1314.9 38.699h37.699v37.6h-37.699zm38.699 0h37.701v37.6h-37.701zm38.701 0h37.6v37.6h-37.6zm38.6 0h37.699v37.6h-37.699zm38.699 0h37.701v37.6h-37.701zm38.701 0h37.6v37.6h-37.6zm38.6 0h37.699v37.6h-37.699zm38.699 0h37.701v37.6h-37.701zm38.701 0h37.699v37.6h-37.699zm38.699 0h37.6v37.6h-37.6zm38.6 0h37.701v37.6h-37.701zm38.701 0h37.699v37.6h-37.699zm38.699 0h37.701v37.6h-37.701zm38.701 0h37.6v37.6h-37.6zm38.6 0h37.699v37.6h-37.699zm38.699 0h37.701v37.6h-37.701zm38.701 0h37.699v37.6h-37.699zm38.699 0h37.6v37.6h-37.6zm38.6 0h37.701v37.6h-37.701zm38.701 0h37.699v37.6h-37.699zm38.699 0h37.699v37.6h-37.699zm38.699 0h37.602v37.6h-37.602zm38.602 0h37.699v37.6h-37.699zm38.699 0h37.699v37.6h-37.699zm38.699 0h37.701v37.6h-37.701zm38.701 0h37.6v37.6h-37.6zm38.6 0h37.699v37.6h-37.699zm38.699 0h37.701v37.6h-37.701zm38.701 0h37.699v37.6h-37.699zm38.699 0h37.6v37.6h-37.6zm38.6 0h37.701v37.6h-37.701zm38.701 0h37.699v37.6h-37.699zm38.699 0h37.6v37.6h-37.6zm38.6 0h37.701v37.6h-37.701zm38.701 0h37.699v37.6h-37.699zm-1314.9 38.6h37.699v37.701h-37.699zm38.699 0h37.701v37.701h-37.701zm38.701 0h37.6v37.701h-37.6zm38.6 0h37.699v37.701h-37.699zm38.699 0h37.701v37.701h-37.701zm38.701 0h37.6v37.701h-37.6zm38.6 0h37.699v37.701h-37.699zm38.699 0h37.701v37.701h-37.701zm38.701 0h37.699v37.701h-37.699zm38.699 0h37.6v37.701h-37.6zm38.6 0h37.701v37.701h-37.701zm38.701 0h37.699v37.701h-37.699zm38.699 0h37.701v37.701h-37.701zm38.701 0h37.6v37.701h-37.6zm38.6 0h37.699v37.701h-37.699zm38.699 0h37.701v37.701h-37.701zm38.701 0h37.699v37.701h-37.699zm38.699 0h37.6v37.701h-37.6zm38.6 0h37.701v37.701h-37.701zm38.701 0h37.699v37.701h-37.699zm38.699 0h37.699v37.701h-37.699zm38.699 0h37.602v37.701h-37.602zm38.602 0h37.699v37.701h-37.699zm38.699 0h37.699v37.701h-37.699zm38.699 0h37.701v37.701h-37.701zm38.701 0h37.6v37.701h-37.6zm38.6 0h37.699v37.701h-37.699zm38.699 0h37.701v37.701h-37.701zm38.701 0h37.699v37.701h-37.699zm38.699 0h37.6v37.701h-37.6zm38.6 0h37.701v37.701h-37.701zm38.701 0h37.699v37.701h-37.699zm38.699 0h37.6v37.701h-37.6zm38.6 0h37.701v37.701h-37.701zm38.701 0h37.699v37.701h-37.699zm-1314.9 38.701h37.699v37.699h-37.699zm38.699 0h37.701v37.699h-37.701zm38.701 0h37.6v37.699h-37.6zm38.6 0h37.699v37.699h-37.699zm38.699 0h37.701v37.699h-37.701zm38.701 0h37.6v37.699h-37.6zm38.6 0h37.699v37.699h-37.699zm38.699 0h37.701v37.699h-37.701zm38.701 0h37.699v37.699h-37.699zm38.699 0h37.6v37.699h-37.6zm38.6 0h37.701v37.699h-37.701zm38.701 0h37.699v37.699h-37.699zm38.699 0h37.701v37.699h-37.701zm38.701 0h37.6v37.699h-37.6zm38.6 0h37.699v37.699h-37.699zm38.699 0h37.701v37.699h-37.701zm38.701 0h37.699v37.699h-37.699zm38.699 0h37.6v37.699h-37.6zm38.6 0h37.701v37.699h-37.701zm38.701 0h37.699v37.699h-37.699zm38.699 0h37.699v37.699h-37.699zm38.699 0h37.602v37.699h-37.602zm38.602 0h37.699v37.699h-37.699zm38.699 0h37.699v37.699h-37.699zm38.699 0h37.701v37.699h-37.701zm38.701 0h37.6v37.699h-37.6zm38.6 0h37.699v37.699h-37.699zm38.699 0h37.701v37.699h-37.701zm38.701 0h37.699v37.699h-37.699zm38.699 0h37.6v37.699h-37.6zm38.6 0h37.701v37.699h-37.701zm38.701 0h37.699v37.699h-37.699zm38.699 0h37.6v37.699h-37.6zm38.6 0h37.701v37.699h-37.701zm38.701 0h37.699v37.699h-37.699zm-1314.9 38.699h37.699v37.699h-37.699zm38.699 0h37.701v37.699h-37.701zm38.701 0h37.6v37.699h-37.6zm38.6 0h37.699v37.699h-37.699zm38.699 0h37.701v37.699h-37.701zm38.701 0h37.6v37.699h-37.6zm38.6 0h37.699v37.699h-37.699zm38.699 0h37.701v37.699h-37.701zm38.701 0h37.699v37.699h-37.699zm38.699 0h37.6v37.699h-37.6zm38.6 0h37.701v37.699h-37.701zm38.701 0h37.699v37.699h-37.699zm38.699 0h37.701v37.699h-37.701zm38.701 0h37.6v37.699h-37.6zm38.6 0h37.699v37.699h-37.699zm38.699 0h37.701v37.699h-37.701zm38.701 0h37.699v37.699h-37.699zm38.699 0h37.6v37.699h-37.6zm38.6 0h37.701v37.699h-37.701zm38.701 0h37.699v37.699h-37.699zm38.699 0h37.699v37.699h-37.699zm38.699 0h37.602v37.699h-37.602zm38.602 0h37.699v37.699h-37.699zm38.699 0h37.699v37.699h-37.699zm38.699 0h37.701v37.699h-37.701zm38.701 0h37.6v37.699h-37.6zm38.6 0h37.699v37.699h-37.699zm38.699 0h37.701v37.699h-37.701zm38.701 0h37.699v37.699h-37.699zm38.699 0h37.6v37.699h-37.6zm38.6 0h37.701v37.699h-37.701zm38.701 0h37.699v37.699h-37.699zm38.699 0h37.6v37.699h-37.6zm38.6 0h37.701v37.699h-37.701zm38.701 0h37.699v37.699h-37.699zm-1314.9 38.699h37.699v37.602h-37.699zm38.699 0h37.701v37.602h-37.701zm38.701 0h37.6v37.602h-37.6zm38.6 0h37.699v37.602h-37.699zm38.699 0h37.701v37.602h-37.701zm38.701 0h37.6v37.602h-37.6zm38.6 0h37.699v37.602h-37.699zm38.699 0h37.701v37.602h-37.701zm38.701 0h37.699v37.602h-37.699zm38.699 0h37.6v37.602h-37.6zm38.6 0h37.701v37.602h-37.701zm38.701 0h37.699v37.602h-37.699zm38.699 0h37.701v37.602h-37.701zm38.701 0h37.6v37.602h-37.6zm38.6 0h37.699v37.602h-37.699zm38.699 0h37.701v37.602h-37.701zm38.701 0h37.699v37.602h-37.699zm38.699 0h37.6v37.602h-37.6zm38.6 0h37.701v37.602h-37.701zm38.701 0h37.699v37.602h-37.699zm38.699 0h37.699v37.602h-37.699zm38.699 0h37.602v37.602h-37.602zm38.602 0h37.699v37.602h-37.699zm38.699 0h37.699v37.602h-37.699zm38.699 0h37.701v37.602h-37.701zm38.701 0h37.6v37.602h-37.6zm38.6 0h37.699v37.602h-37.699zm38.699 0h37.701v37.602h-37.701zm38.701 0h37.699v37.602h-37.699zm38.699 0h37.6v37.602h-37.6zm38.6 0h37.701v37.602h-37.701zm38.701 0h37.699v37.602h-37.699zm38.699 0h37.6v37.602h-37.6zm38.6 0h37.701v37.602h-37.701zm38.701 0h37.699v37.602h-37.699zm-1314.9 38.602h37.699v37.699h-37.699zm38.699 0h37.701v37.699h-37.701zm38.701 0h37.6v37.699h-37.6zm38.6 0h37.699v37.699h-37.699zm38.699 0h37.701v37.699h-37.701zm38.701 0h37.6v37.699h-37.6zm38.6 0h37.699v37.699h-37.699zm38.699 0h37.701v37.699h-37.701zm38.701 0h37.699v37.699h-37.699zm38.699 0h37.6v37.699h-37.6zm38.6 0h37.701v37.699h-37.701zm38.701 0h37.699v37.699h-37.699zm38.699 0h37.701v37.699h-37.701zm38.701 0h37.6v37.699h-37.6zm38.6 0h37.699v37.699h-37.699zm38.699 0h37.701v37.699h-37.701zm38.701 0h37.699v37.699h-37.699zm38.699 0h37.6v37.699h-37.6zm38.6 0h37.701v37.699h-37.701zm38.701 0h37.699v37.699h-37.699zm38.699 0h37.699v37.699h-37.699zm38.699 0h37.602v37.699h-37.602zm38.602 0h37.699v37.699h-37.699zm38.699 0h37.699v37.699h-37.699zm38.699 0h37.701v37.699h-37.701zm38.701 0h37.6v37.699h-37.6zm38.6 0h37.699v37.699h-37.699zm38.699 0h37.701v37.699h-37.701zm38.701 0h37.699v37.699h-37.699zm38.699 0h37.6v37.699h-37.6zm38.6 0h37.701v37.699h-37.701zm38.701 0h37.699v37.699h-37.699zm38.699 0h37.6v37.699h-37.6zm38.6 0h37.701v37.699h-37.701zm38.701 0h37.699v37.699h-37.699zm-1314.9 38.699h37.699v37.699h-37.699zm38.699 0h37.701v37.699h-37.701zm38.701 0h37.6v37.699h-37.6zm38.6 0h37.699v37.699h-37.699zm38.699 0h37.701v37.699h-37.701zm38.701 0h37.6v37.699h-37.6zm38.6 0h37.699v37.699h-37.699zm38.699 0h37.701v37.699h-37.701zm38.701 0h37.699v37.699h-37.699zm38.699 0h37.6v37.699h-37.6zm38.6 0h37.701v37.699h-37.701zm38.701 0h37.699v37.699h-37.699zm38.699 0h37.701v37.699h-37.701zm38.701 0h37.6v37.699h-37.6zm38.6 0h37.699v37.699h-37.699zm38.699 0h37.701v37.699h-37.701zm38.701 0h37.699v37.699h-37.699zm38.699 0h37.6v37.699h-37.6zm38.6 0h37.701v37.699h-37.701zm38.701 0h37.699v37.699h-37.699zm38.699 0h37.699v37.699h-37.699zm38.699 0h37.602v37.699h-37.602zm38.602 0h37.699v37.699h-37.699zm38.699 0h37.699v37.699h-37.699zm38.699 0h37.701v37.699h-37.701zm38.701 0h37.6v37.699h-37.6zm38.6 0h37.699v37.699h-37.699zm38.699 0h37.701v37.699h-37.701zm38.701 0h37.699v37.699h-37.699zm38.699 0h37.6v37.699h-37.6zm38.6 0h37.701v37.699h-37.701zm38.701 0h37.699v37.699h-37.699zm38.699 0h37.6v37.699h-37.6zm38.6 0h37.701v37.699h-37.701zm38.701 0h37.699v37.699h-37.699zm-1314.9 38.699h37.699v37.701h-37.699zm38.699 0h37.701v37.701h-37.701zm38.701 0h37.6v37.701h-37.6zm38.6 0h37.699v37.701h-37.699zm38.699 0h37.701v37.701h-37.701zm38.701 0h37.6v37.701h-37.6zm38.6 0h37.699v37.701h-37.699zm38.699 0h37.701v37.701h-37.701zm38.701 0h37.699v37.701h-37.699zm38.699 0h37.6v37.701h-37.6zm38.6 0h37.701v37.701h-37.701zm38.701 0h37.699v37.701h-37.699zm38.699 0h37.701v37.701h-37.701zm38.701 0h37.6v37.701h-37.6zm38.6 0h37.699v37.701h-37.699zm38.699 0h37.701v37.701h-37.701zm38.701 0h37.699v37.701h-37.699zm38.699 0h37.6v37.701h-37.6zm38.6 0h37.701v37.701h-37.701zm38.701 0h37.699v37.701h-37.699zm38.699 0h37.699v37.701h-37.699zm38.699 0h37.602v37.701h-37.602zm38.602 0h37.699v37.701h-37.699zm38.699 0h37.699v37.701h-37.699zm38.699 0h37.701v37.701h-37.701zm38.701 0h37.6v37.701h-37.6zm38.6 0h37.699v37.701h-37.699zm38.699 0h37.701v37.701h-37.701zm38.701 0h37.699v37.701h-37.699zm38.699 0h37.6v37.701h-37.6zm38.6 0h37.701v37.701h-37.701zm38.701 0h37.699v37.701h-37.699zm38.699 0h37.6v37.701h-37.6zm38.6 0h37.701v37.701h-37.701zm38.701 0h37.699v37.701h-37.699zm-1314.9 38.701h37.699v37.6h-37.699zm38.699 0h37.701v37.6h-37.701zm38.701 0h37.6v37.6h-37.6zm38.6 0h37.699v37.6h-37.699zm38.699 0h37.701v37.6h-37.701zm38.701 0h37.6v37.6h-37.6zm38.6 0h37.699v37.6h-37.699zm38.699 0h37.701v37.6h-37.701zm38.701 0h37.699v37.6h-37.699zm38.699 0h37.6v37.6h-37.6zm38.6 0h37.701v37.6h-37.701zm38.701 0h37.699v37.6h-37.699zm38.699 0h37.701v37.6h-37.701zm38.701 0h37.6v37.6h-37.6zm38.6 0h37.699v37.6h-37.699zm38.699 0h37.701v37.6h-37.701zm38.701 0h37.699v37.6h-37.699zm38.699 0h37.6v37.6h-37.6zm38.6 0h37.701v37.6h-37.701zm38.701 0h37.699v37.6h-37.699zm38.699 0h37.699v37.6h-37.699zm38.699 0h37.602v37.6h-37.602zm38.602 0h37.699v37.6h-37.699zm38.699 0h37.699v37.6h-37.699zm38.699 0h37.701v37.6h-37.701zm38.701 0h37.6v37.6h-37.6zm38.6 0h37.699v37.6h-37.699zm38.699 0h37.701v37.6h-37.701zm38.701 0h37.699v37.6h-37.699zm38.699 0h37.6v37.6h-37.6zm38.6 0h37.701v37.6h-37.701zm38.701 0h37.699v37.6h-37.699zm38.699 0h37.6v37.6h-37.6zm38.6 0h37.701v37.6h-37.701zm38.701 0h37.699v37.6h-37.699zm-1314.9 38.6h37.699v37.699h-37.699zm38.699 0h37.701v37.699h-37.701zm38.701 0h37.6v37.699h-37.6zm38.6 0h37.699v37.699h-37.699zm38.699 0h37.701v37.699h-37.701zm38.701 0h37.6v37.699h-37.6zm38.6 0h37.699v37.699h-37.699zm38.699 0h37.701v37.699h-37.701zm38.701 0h37.699v37.699h-37.699zm38.699 0h37.6v37.699h-37.6zm38.6 0h37.701v37.699h-37.701zm38.701 0h37.699v37.699h-37.699zm38.699 0h37.701v37.699h-37.701zm38.701 0h37.6v37.699h-37.6zm38.6 0h37.699v37.699h-37.699zm38.699 0h37.701v37.699h-37.701zm38.701 0h37.699v37.699h-37.699zm38.699 0h37.6v37.699h-37.6zm38.6 0h37.701v37.699h-37.701zm38.701 0h37.699v37.699h-37.699zm38.699 0h37.699v37.699h-37.699zm38.699 0h37.602v37.699h-37.602zm38.602 0h37.699v37.699h-37.699zm38.699 0h37.699v37.699h-37.699zm38.699 0h37.701v37.699h-37.701zm38.701 0h37.6v37.699h-37.6zm38.6 0h37.699v37.699h-37.699zm38.699 0h37.701v37.699h-37.701zm38.701 0h37.699v37.699h-37.699zm38.699 0h37.6v37.699h-37.6zm38.6 0h37.701v37.699h-37.701zm38.701 0h37.699v37.699h-37.699zm38.699 0h37.6v37.699h-37.6zm38.6 0h37.701v37.699h-37.701zm38.701 0h37.699v37.699h-37.699zm-1314.9 38.699h37.699v37.701h-37.699zm38.699 0h37.701v37.701h-37.701zm38.701 0h37.6v37.701h-37.6zm38.6 0h37.699v37.701h-37.699zm38.699 0h37.701v37.701h-37.701zm38.701 0h37.6v37.701h-37.6zm38.6 0h37.699v37.701h-37.699zm38.699 0h37.701v37.701h-37.701zm38.701 0h37.699v37.701h-37.699zm38.699 0h37.6v37.701h-37.6zm38.6 0h37.701v37.701h-37.701zm38.701 0h37.699v37.701h-37.699zm38.699 0h37.701v37.701h-37.701zm38.701 0h37.6v37.701h-37.6zm38.6 0h37.699v37.701h-37.699zm38.699 0h37.701v37.701h-37.701zm38.701 0h37.699v37.701h-37.699zm38.699 0h37.6v37.701h-37.6zm38.6 0h37.701v37.701h-37.701zm38.701 0h37.699v37.701h-37.699zm38.699 0h37.699v37.701h-37.699zm38.699 0h37.602v37.701h-37.602zm38.602 0h37.699v37.701h-37.699zm38.699 0h37.699v37.701h-37.699zm38.699 0h37.701v37.701h-37.701zm38.701 0h37.6v37.701h-37.6zm38.6 0h37.699v37.701h-37.699zm38.699 0h37.701v37.701h-37.701zm38.701 0h37.699v37.701h-37.699zm38.699 0h37.6v37.701h-37.6zm38.6 0h37.701v37.701h-37.701zm38.701 0h37.699v37.701h-37.699zm38.699 0h37.6v37.701h-37.6zm38.6 0h37.701v37.701h-37.701zm38.701 0h37.699v37.701h-37.699zm-1314.9 38.701h37.699v37.699h-37.699zm38.699 0h37.701v37.699h-37.701zm38.701 0h37.6v37.699h-37.6zm38.6 0h37.699v37.699h-37.699zm38.699 0h37.701v37.699h-37.701zm38.701 0h37.6v37.699h-37.6zm38.6 0h37.699v37.699h-37.699zm38.699 0h37.701v37.699h-37.701zm38.701 0h37.699v37.699h-37.699zm38.699 0h37.6v37.699h-37.6zm38.6 0h37.701v37.699h-37.701zm38.701 0h37.699v37.699h-37.699zm38.699 0h37.701v37.699h-37.701zm38.701 0h37.6v37.699h-37.6zm38.6 0h37.699v37.699h-37.699zm38.699 0h37.701v37.699h-37.701zm38.701 0h37.699v37.699h-37.699zm38.699 0h37.6v37.699h-37.6zm38.6 0h37.701v37.699h-37.701zm38.701 0h37.699v37.699h-37.699zm38.699 0h37.699v37.699h-37.699zm38.699 0h37.602v37.699h-37.602zm38.602 0h37.699v37.699h-37.699zm38.699 0h37.699v37.699h-37.699zm38.699 0h37.701v37.699h-37.701zm38.701 0h37.6v37.699h-37.6zm38.6 0h37.699v37.699h-37.699zm38.699 0h37.701v37.699h-37.701zm38.701 0h37.699v37.699h-37.699zm38.699 0h37.6v37.699h-37.6zm38.6 0h37.701v37.699h-37.701zm38.701 0h37.699v37.699h-37.699zm38.699 0h37.6v37.699h-37.6zm38.6 0h37.701v37.699h-37.701zm38.701 0h37.699v37.699h-37.699z" enable-background="accumulate" fill="#1c90ff" fill-opacity=".26667" stop-color="#000000" stroke-miterlimit="10"/>

</svg>
